<svg width="357" height="70" viewBox="0 0 357 70" fill="none" xmlns="http://www.w3.org/2000/svg">
<path fill-rule="evenodd" clip-rule="evenodd" d="M0 35C0 15.67 15.67 0 35 0H236.139C247.547 0 257.681 5.45806 264.07 13.9053C268.545 19.8209 274.775 25 282.192 25C289.775 25 296.077 19.6039 300.462 13.4182C306.253 5.24882 315.256 0 325.367 0C342.838 0 357 15.67 357 35C357 54.33 342.838 70 325.367 70C315.256 70 306.253 64.7512 300.462 56.5818C296.077 50.3961 289.775 45 282.192 45C274.775 45 268.545 50.1791 264.07 56.0947C257.681 64.5419 247.547 70 236.139 70H35C15.67 70 0 54.33 0 35Z" fill="#fff"/>
</svg>
