<svg width="53" height="53" viewBox="0 0 53 53" fill="none" xmlns="http://www.w3.org/2000/svg">
<path d="M5.88889 0C2.64117 0 0 2.64117 0 5.88889V47.1111C0 50.3588 2.64117 53 5.88889 53H25.3843H33.6081H47.1111C50.3588 53 53 50.3588 53 47.1111V5.88889C53 2.64117 50.3588 0 47.1111 0H5.88889ZM5.88889 5.88889H47.1111L47.1169 47.1111H33.6081V35.4368H40.5724L41.6075 27.4144H33.6541V22.3019C33.6541 19.9816 34.3007 18.4143 37.6279 18.4143H41.8318V11.2544C39.7854 11.0454 37.7308 10.9438 35.6726 10.9497C29.5659 10.9497 25.3843 14.6769 25.3843 21.5197V27.4259H18.4833V35.4483H25.3843V47.1111H5.88889V5.88889Z" fill="#0659D5"/>
</svg>
