<svg width="53" height="53" viewBox="0 0 53 53" fill="none" xmlns="http://www.w3.org/2000/svg">
<path d="M14.7222 0C6.60439 0 0 6.60439 0 14.7222V38.2778C0 46.3956 6.60439 53 14.7222 53H38.2778C46.3956 53 53 46.3956 53 38.2778V14.7222C53 6.60439 46.3956 0 38.2778 0H14.7222ZM14.7222 5.88889H38.2778C43.1479 5.88889 47.1111 9.85211 47.1111 14.7222V38.2778C47.1111 43.1479 43.1479 47.1111 38.2778 47.1111H14.7222C9.85211 47.1111 5.88889 43.1479 5.88889 38.2778V14.7222C5.88889 9.85211 9.85211 5.88889 14.7222 5.88889ZM41.2222 8.83333C40.4413 8.83333 39.6924 9.14355 39.1402 9.69574C38.588 10.2479 38.2778 10.9969 38.2778 11.7778C38.2778 12.5587 38.588 13.3076 39.1402 13.8598C39.6924 14.412 40.4413 14.7222 41.2222 14.7222C42.0031 14.7222 42.7521 14.412 43.3043 13.8598C43.8564 13.3076 44.1667 12.5587 44.1667 11.7778C44.1667 10.9969 43.8564 10.2479 43.3043 9.69574C42.7521 9.14355 42.0031 8.83333 41.2222 8.83333ZM26.5 11.7778C18.3822 11.7778 11.7778 18.3822 11.7778 26.5C11.7778 34.6178 18.3822 41.2222 26.5 41.2222C34.6178 41.2222 41.2222 34.6178 41.2222 26.5C41.2222 18.3822 34.6178 11.7778 26.5 11.7778ZM26.5 17.6667C31.3701 17.6667 35.3333 21.6299 35.3333 26.5C35.3333 31.3701 31.3701 35.3333 26.5 35.3333C21.6299 35.3333 17.6667 31.3701 17.6667 26.5C17.6667 21.6299 21.6299 17.6667 26.5 17.6667Z" fill="url(#paint0_linear_2001_733)"/>
<defs>
<linearGradient id="paint0_linear_2001_733" x1="26.5" y1="0" x2="26.5" y2="53" gradientUnits="userSpaceOnUse">
<stop stop-color="#FDBCDB"/>
<stop offset="1" stop-color="#ED1D81"/>
</linearGradient>
</defs>
</svg>
