<svg width="32" height="33" viewBox="0 0 32 33" fill="none" xmlns="http://www.w3.org/2000/svg">
<path d="M14.8898 30.5078C13.6918 31.2781 12.2657 31.6158 10.8488 31.4646C9.43195 31.3134 8.10952 30.6827 7.10145 29.677L6.22324 28.8001C5.83373 28.4068 5.61523 27.8763 5.61523 27.3231C5.61523 26.7702 5.83373 26.2394 6.22324 25.8462L9.92098 22.1769C10.3108 21.7894 10.8385 21.5718 11.3885 21.5718C11.9386 21.5718 12.4663 21.7894 12.8561 22.1769C13.2498 22.5659 13.7813 22.784 14.3352 22.784C14.889 22.784 15.4205 22.5659 15.8143 22.1769L21.7075 16.2922C22.0971 15.899 22.3156 15.3682 22.3156 14.8152C22.3156 14.2621 22.0971 13.7314 21.7075 13.3382C21.3194 12.949 21.1016 12.4221 21.1016 11.8728C21.1016 11.3236 21.3194 10.7967 21.7075 10.4074L25.2665 6.71503C25.6603 6.32606 26.1919 6.10791 26.7456 6.10791C27.2996 6.10791 27.8311 6.32606 28.2247 6.71503L29.1029 7.59197C30.1281 8.58439 30.7815 9.89787 30.9539 11.3132C31.1265 12.7285 30.8076 14.1601 30.0505 15.3691C26.0206 21.3433 20.8727 26.4838 14.8898 30.5078Z" stroke="#fff" stroke-width="2" stroke-linecap="round" stroke-linejoin="round"/>
<path d="M16.0221 1.5C14.0494 1.5 12.0959 1.88799 10.2734 2.64183C8.45082 3.39567 6.79481 4.50059 5.39988 5.8935C4.00493 7.2864 2.89842 8.94002 2.14349 10.7599C1.38856 12.5799 1 14.5304 1 16.5003" stroke="#fff" stroke-width="2" stroke-linecap="round" stroke-linejoin="round"/>
<path d="M16.0217 7.26929C13.5699 7.26929 11.2186 8.24184 9.48495 9.97297C7.75131 11.7041 6.77734 14.052 6.77734 16.5002" stroke="#fff" stroke-width="2" stroke-linecap="round" stroke-linejoin="round"/>
</svg>
