<svg width="53" height="53" viewBox="0 0 53 53" fill="none" xmlns="http://www.w3.org/2000/svg">
<path d="M26.5 0C11.8648 0 0 11.8648 0 26.5C0 41.1352 11.8648 53 26.5 53C41.1352 53 53 41.1352 53 26.5C53 11.8648 41.1352 0 26.5 0ZM26.5 4.81818C38.4744 4.81818 48.1818 14.5256 48.1818 26.5C48.1818 38.4744 38.4744 48.1818 26.5 48.1818C14.5256 48.1818 4.81818 38.4744 4.81818 26.5C4.81818 14.5256 14.5256 4.81818 26.5 4.81818ZM37.3903 16.0661C36.7785 15.9955 36.0098 16.1632 35.1506 16.4731C33.5811 17.0392 13.5195 25.558 12.3607 26.0506C11.2634 26.518 10.2234 27.0274 10.2222 27.7634C10.2222 28.2813 10.5293 28.5738 11.3773 28.8762C12.259 29.1917 14.4826 29.864 15.7955 30.2266C17.0603 30.5747 18.4986 30.2712 19.3057 29.7702C20.1597 29.2389 30.0277 22.6364 30.7347 22.0582C31.4418 21.4801 32.0069 22.2223 31.4288 22.8017C30.8506 23.3811 24.0766 29.9511 23.1828 30.8618C22.0987 31.9675 22.8693 33.1131 23.5969 33.572C24.4268 34.096 30.4019 38.1022 31.3017 38.7454C32.2015 39.3887 33.1125 39.6794 33.9484 39.6794C34.7844 39.6794 35.2244 38.5777 35.64 37.3009C36.1278 35.8061 38.413 20.9013 38.6937 17.9647C38.7792 17.0745 38.4984 16.4828 37.9479 16.219C37.7814 16.1392 37.5943 16.0896 37.3903 16.0661Z" fill="#0EAFF9"/>
</svg>
