<svg width="53" height="53" viewBox="0 0 53 53" fill="none" xmlns="http://www.w3.org/2000/svg">
<path d="M25.8622 0C21.6705 0 11.3022 0.421492 5.78678 5.4893C1.81565 9.079 0.27218 14.5699 0.0515612 21.1159C-0.389676 31.4626 2.0354 38.0077 6.00654 41.3863C6.88901 42.0197 9.09692 43.7115 13.2887 44.9784V50.2574C13.2887 50.2574 13.2878 52.3673 14.6115 52.7897C14.8321 52.7897 15.0545 53 15.2751 53C16.5988 53 17.6993 51.5211 19.2436 50.043C20.5674 48.5648 21.6713 47.5107 22.3332 46.4549H25.4227H27.1894C31.3811 46.4549 41.7493 46.0334 47.2648 40.9656C51.2359 37.1647 52.7802 31.6721 52.7802 24.7039C53.0009 23.6481 53 22.3828 53 21.1159C52.7794 13.303 50.3543 8.02485 47.045 5.06863C45.7213 4.01284 39.9835 0 27.6289 0H25.8622ZM25.4227 4.01284H26.9653H27.1894H27.4091C39.1019 4.01284 43.5143 7.60336 43.9555 8.02568C46.6029 10.1373 48.1473 14.7819 48.3679 20.9055V21.751C48.5885 23.0179 48.5876 24.0704 48.5876 24.7039C48.367 31.0387 47.0424 35.2635 44.395 38.0086C39.762 42.0206 30.0565 42.2317 27.4091 42.2317H25.8622H25.6424H25.4227H23.2165L19.6875 46.0342L17.4813 48.3562L17.0375 48.9872C16.5962 49.4095 15.9361 50.2566 15.4949 50.4677V50.043V40.9656C11.0825 39.9098 9.31754 38.4309 8.8763 38.0086C5.78764 35.4747 4.02269 29.3511 4.46393 21.1159V19.0043C4.90517 13.9365 6.2306 10.5588 8.43679 8.23601C13.0698 4.224 22.7753 4.01284 25.4227 4.01284ZM25.2029 8.65668C24.0998 8.65668 24.0998 10.1373 25.2029 10.1373C33.3658 10.1373 40.4265 15.4146 40.4265 25.339C40.4265 26.3948 41.9691 26.3948 41.9691 25.339C41.9691 14.5699 34.4689 8.44552 25.2029 8.65668ZM16.4601 10.6115C15.9912 10.5588 15.4966 10.6619 15.0553 10.9786C12.8492 12.0344 10.6404 14.1493 11.3022 16.472C11.3022 16.472 11.7452 18.37 14.172 22.382C15.4957 24.2824 16.5979 25.9733 17.701 27.2403C18.8041 28.7184 20.5682 30.4068 22.3332 31.6738C25.8631 34.4189 31.3811 37.1647 33.8079 37.7982C36.0141 38.4317 38.44 36.3176 39.5431 34.2061C39.9844 33.3614 39.762 32.3073 38.8796 31.6738C37.5558 30.4068 35.3522 28.9304 33.8079 28.0858C32.7048 27.4523 31.3794 27.8729 30.9382 28.5064L29.8351 29.7725C29.3938 30.406 28.2925 30.4077 28.2925 30.4077C21.012 28.5072 19.0239 21.3262 19.0239 21.3262C19.0239 21.3262 19.0256 20.4832 19.6875 19.8497L21.0103 18.7939C21.6722 18.3716 22.1117 17.103 21.4498 16.0472C21.0086 15.4138 20.3493 14.1485 19.6875 13.515C19.0256 12.6703 17.701 11.1931 17.701 11.1931C17.3701 10.8763 16.9289 10.6643 16.4601 10.6115ZM26.7455 12.8799C25.6424 12.6687 25.4227 14.3604 26.5258 14.3604C32.7031 14.7828 36.2347 18.7948 36.0141 23.8626C35.7935 24.9184 37.5567 24.9184 37.5567 23.8626C37.7773 17.9501 33.8053 13.091 26.7455 12.8799ZM27.4091 16.8927C26.306 16.6815 26.306 18.3692 27.4091 18.3692C30.0565 18.3692 31.3777 19.8481 31.3777 22.382C31.5983 23.4378 33.1443 23.4378 33.1443 22.382C32.9237 19.0035 30.939 16.8927 27.4091 16.8927Z" fill="#FCFCFC"/>
</svg>
