<svg width="53" height="53" viewBox="0 0 53 53" fill="none" xmlns="http://www.w3.org/2000/svg">
<path d="M26.5 0C11.8648 0 0 11.8648 0 26.5C0 31.3965 1.33373 35.9794 3.65128 39.9147L0.258789 52.6189L13.5841 49.6381C17.4061 51.7762 21.8095 53 26.5 53C41.1352 53 53 41.1352 53 26.5C53 11.8648 41.1352 0 26.5 0ZM26.5 4.81818C38.4744 4.81818 48.1818 14.5256 48.1818 26.5C48.1818 38.4744 38.4744 48.1818 26.5 48.1818C22.0058 48.1818 17.8317 46.8145 14.3699 44.4741L6.97554 46.128L8.85764 39.0748C6.32448 35.5262 4.81818 31.1929 4.81818 26.5C4.81818 14.5256 14.5256 4.81818 26.5 4.81818ZM17.433 14.1369C16.9909 14.1369 16.2802 14.3003 15.6756 14.958C15.0817 15.6169 13.3865 17.1995 13.3865 20.4349C13.3865 23.6583 15.7278 26.7852 16.0567 27.2152C16.3855 27.6573 20.5984 34.4973 27.2764 37.1268C32.8125 39.307 33.9435 38.8751 35.1553 38.7619C36.3575 38.6583 39.0373 37.1804 39.583 35.6494C40.1274 34.1172 40.1269 32.8033 39.957 32.5274C39.792 32.26 39.3608 32.094 38.7031 31.7652C38.0454 31.4351 34.819 29.8458 34.2143 29.629C33.618 29.4122 33.1763 29.2983 32.7462 29.956C32.3042 30.6137 31.0509 32.0939 30.6594 32.5251C30.28 32.9672 29.9008 33.0186 29.2432 32.6898C28.5855 32.3609 26.4705 31.6706 23.9639 29.4314C22.0137 27.6956 20.6967 25.5461 20.3173 24.8908C19.9367 24.2343 20.2755 23.8763 20.6043 23.5475C20.903 23.2608 21.2636 22.7859 21.5924 22.4064C21.9104 22.0162 22.0226 21.7498 22.2394 21.3078C22.4671 20.8777 22.3515 20.4862 22.1876 20.1573C22.025 19.8273 20.7498 16.5811 20.1644 15.2874C19.6729 14.1985 19.1591 14.1666 18.6869 14.1558C18.3051 14.1365 17.863 14.1369 17.433 14.1369Z" fill="#1AE63B"/>
</svg>
